<svg xmlns="http://www.w3.org/2000/svg" xmlns:xlink="http://www.w3.org/1999/xlink" xmlns:inkscape="http://www.inkscape.org/namespaces/inkscape" version="1.1" width="360" height="257" viewBox="0 0 360 257">
<defs>
<mask id="mask_1">
<g transform="matrix(.5,0,0,.5,0,24)">

</g>
</mask>
<g id="mask_4_contents">
<rect x="0" y="0" width="100%" height="100%" fill-opacity="0"/>
<g>
<clipPath id="clip_5">
<path transform="matrix(1,0,0,-1,0,257)" d="M0 0H360V257H0Z"/>
</clipPath>
<g clip-path="url(#clip_5)">
<path transform="matrix(1,0,0,-1,60,157)" d="M0 87.4C0 96.36084 0 100.84126 1.743896 104.26385 3.27787 107.274448 5.725559 109.72213 8.736152 111.2561 12.15874 113 16.63916 113 25.6 113H214.4C223.36084 113 227.84127 113 231.26386 111.2561 234.27445 109.72213 236.72214 107.274448 238.2561 104.26385 240 100.84126 240 96.36084 240 87.4V25.599999C240 16.63916 240 12.158737 238.2561 8.736153 236.72214 5.725555 234.27445 3.27787 231.26386 1.743896 227.84127 0 223.36084 0 214.4 0H25.600005C16.639163 0 12.15874 0 8.736152 1.743896 5.725559 3.27787 3.27787 5.725555 1.743896 8.736153 0 12.158737 0 16.63916 0 25.599999V87.4Z"/>
</g>
</g>
</g>
<mask id="mask_4" mask-type="alpha">
<use xlink:href="#mask_4_contents"/>
</mask>
<clipPath id="clip_6">
<path transform="matrix(1,0,0,-1,0,257)" d="M59.75 99.75H300.25V213.25H59.75Z"/>
</clipPath>
<g id="mask_7_contents">
<rect x="0" y="0" width="100%" height="100%" fill-opacity="0"/>
<g>
<clipPath id="clip_8">
<path transform="matrix(1,0,0,-1,0,257)" d="M0 0H360V257H0Z"/>
</clipPath>
<g clip-path="url(#clip_8)">
<path transform="matrix(1,0,0,-1,60,157)" d="M0 88C0 93.600528 0 96.40079 1.089935 98.5399 2.048669 100.421527 3.578474 101.95133 5.460095 102.910068 7.599212 104 10.399475 104 16 104H224C229.60053 104 232.40079 104 234.5399 102.910068 236.42153 101.95133 237.95133 100.421527 238.91007 98.5399 240 96.40079 240 93.600528 240 88V16C240 10.399475 240 7.599213 238.91007 5.460098 237.95133 3.578476 236.42153 2.048668 234.5399 1.089935 232.40079 0 229.60053 0 224 0H15.999999C10.399474 0 7.599212 0 5.460095 1.089935 3.578474 2.048668 2.048669 3.578476 1.089935 5.460098 0 7.599213 0 10.399475 0 16V88Z"/>
</g>
</g>
</g>
<mask id="mask_7" mask-type="alpha">
<use xlink:href="#mask_7_contents"/>
</mask>
<clipPath id="clip_9">
<path transform="matrix(1,0,0,-1,0,257)" d="M84.95 122.946H257.374V191.05H84.95Z"/>
</clipPath>
<g id="font_10_8">
</g>
<g id="font_10_7">
</g>
<g id="font_10_5">
</g>
<g id="font_10_3">
</g>
<g id="font_10_4">
</g>
<g id="font_10_2">
</g>
<g id="font_10_1">
</g>
<g id="font_10_6">
</g>
<g id="font_10_0">
</g>
<g id="font_10_21">
</g>
<g id="font_10_18">
</g>
<g id="font_10_20">
</g>
<g id="font_10_17">
</g>
<g id="font_10_11">
</g>
<g id="font_10_16">
</g>
<g id="font_10_13">
</g>
<g id="font_10_10">
</g>
</defs>
<g>
<path transform="matrix(1,0,0,-1,256,22)" d="M0 0C0 12.15 9.85 22 22 22 34.15 22 44 12.15 44 0 44-12.15 34.15-22 22-22 9.85-22 0-12.15 0 0Z" fill="#24e1d8"/>
<path transform="matrix(1,0,0,-1,278.8,15)" d="M0 0C0 .442-.358 .8-.8 .8-1.242 .8-1.6 .442-1.6 0H-.8 0ZM-1.6-14C-1.6-14.442-1.242-14.8-.8-14.8-.358-14.8 0-14.442 0-14H-.8-1.6ZM-7.8-6.2C-8.242-6.2-8.6-6.558-8.6-7-8.6-7.442-8.242-7.8-7.8-7.8V-7-6.2ZM6.2-7.8C6.642-7.8 7-7.442 7-7 7-6.558 6.642-6.2 6.2-6.2V-7-7.8ZM-.8 0H-1.6V-14H-.8 0V0H-.8ZM-7.8-7V-7.8H6.2V-7-6.2H-7.8V-7Z" fill="#010411"/>
<g mask="url(#mask_1)">
<g transform="matrix(1,0,0,1,0,24)">

</g>
</g>
<g mask="url(#mask_4)">
<g>
<g clip-path="url(#clip_6)">
<path transform="matrix(1,0,0,-1,60,69.600009)" d="M0 0C0 8.961 0 13.441 1.744 16.864 3.278 19.874 5.726 22.322 8.736 23.856 12.159 25.6 16.639 25.6 25.6 25.6H214.4C223.361 25.6 227.841 25.6 231.264 23.856 234.274 22.322 236.722 19.874 238.256 16.864 240 13.441 240 8.961 240 0V-61.8C240-70.761 240-75.241 238.256-78.664 236.722-81.674 234.274-84.122 231.264-85.656 227.841-87.4 223.361-87.4 214.4-87.4H25.6C16.639-87.4 12.159-87.4 8.736-85.656 5.726-84.122 3.278-81.674 1.744-78.664 0-75.241 0-70.761 0-61.8V0Z" fill="#3c4243"/>
<g mask="url(#mask_7)">
<g>
<g clip-path="url(#clip_9)">
<path transform="matrix(1,0,0,-1,106,77)" d="M0 0H-.8C-.8-5.081-4.919-9.2-10-9.2V-10-10.8C-4.035-10.8 .8-5.965 .8 0H0ZM-10-10V-9.2C-15.081-9.2-19.2-5.081-19.2 0H-20-20.8C-20.8-5.965-15.965-10.8-10-10.8V-10ZM-20 0H-19.2C-19.2 5.081-15.081 9.2-10 9.2V10 10.8C-15.965 10.8-20.8 5.965-20.8 0H-20ZM-10 10V9.2C-4.919 9.2-.8 5.081-.8 0H0 .8C.8 5.965-4.035 10.8-10 10.8V10Z" fill="#ffffff"/>
<path transform="matrix(1,0,0,-1,96.8,73)" d="M0 0C0 .442-.358 .8-.8 .8-1.242 .8-1.6 .442-1.6 0H-.8 0ZM-1.6-8C-1.6-8.442-1.242-8.8-.8-8.8-.358-8.8 0-8.442 0-8H-.8-1.6ZM-4.8-3.2C-5.242-3.2-5.6-3.558-5.6-4-5.6-4.442-5.242-4.8-4.8-4.8V-4-3.2ZM3.2-4.8C3.642-4.8 4-4.442 4-4 4-3.558 3.642-3.2 3.2-3.2V-4-4.8ZM-.8 0H-1.6V-8H-.8 0V0H-.8ZM-4.8-4V-4.8H3.2V-4-3.2H-4.8V-4Z" fill="#ffffff"/>
<path transform="matrix(1,0,0,-1,116,83)" d="M0 0ZM.144 0 4.656 11.2H6.336L10.848 0H9.168L7.968 2.992H3.024L1.824 0H.144ZM3.568 4.4H7.424L5.504 9.216 3.568 4.4ZM10.859 0ZM15.083-.192C14.358-.192 13.723-.016 13.179 .336 12.646 .688 12.225 1.179 11.915 1.808 11.617 2.437 11.467 3.168 11.467 4 11.467 4.843 11.617 5.573 11.915 6.192 12.225 6.821 12.646 7.312 13.179 7.664 13.723 8.016 14.358 8.192 15.083 8.192 15.649 8.192 16.155 8.064 16.603 7.808 17.051 7.552 17.419 7.189 17.707 6.72V11.2H19.211V0H17.771L17.723 1.296C17.435 .827 17.067 .459 16.619 .192 16.171-.064 15.659-.192 15.083-.192ZM15.435 1.184C15.873 1.184 16.257 1.301 16.587 1.536 16.929 1.771 17.195 2.091 17.387 2.496 17.59 2.912 17.697 3.387 17.707 3.92V4.08C17.697 4.613 17.59 5.083 17.387 5.488 17.195 5.904 16.929 6.229 16.587 6.464 16.257 6.699 15.867 6.816 15.419 6.816 14.95 6.816 14.534 6.693 14.171 6.448 13.809 6.213 13.526 5.883 13.323 5.456 13.121 5.04 13.019 4.555 13.019 4 13.019 3.445 13.121 2.955 13.323 2.528 13.537 2.112 13.825 1.781 14.187 1.536 14.55 1.301 14.966 1.184 15.435 1.184ZM20.266 0ZM24.49-.192C23.764-.192 23.13-.016 22.586 .336 22.052 .688 21.631 1.179 21.322 1.808 21.023 2.437 20.874 3.168 20.874 4 20.874 4.843 21.023 5.573 21.322 6.192 21.631 6.821 22.052 7.312 22.586 7.664 23.13 8.016 23.764 8.192 24.49 8.192 25.055 8.192 25.562 8.064 26.01 7.808 26.458 7.552 26.826 7.189 27.114 6.72V11.2H28.618V0H27.178L27.13 1.296C26.842 .827 26.474 .459 26.026 .192 25.578-.064 25.066-.192 24.49-.192ZM24.842 1.184C25.279 1.184 25.663 1.301 25.994 1.536 26.335 1.771 26.602 2.091 26.794 2.496 26.996 2.912 27.103 3.387 27.114 3.92V4.08C27.103 4.613 26.996 5.083 26.794 5.488 26.602 5.904 26.335 6.229 25.994 6.464 25.663 6.699 25.274 6.816 24.826 6.816 24.356 6.816 23.94 6.693 23.578 6.448 23.215 6.213 22.932 5.883 22.73 5.456 22.527 5.04 22.426 4.555 22.426 4 22.426 3.445 22.527 2.955 22.73 2.528 22.943 2.112 23.231 1.781 23.594 1.536 23.956 1.301 24.372 1.184 24.842 1.184ZM33.578 0ZM34.714-3.2V8H36.138L36.218 6.704C36.506 7.173 36.874 7.536 37.322 7.792 37.77 8.059 38.282 8.192 38.858 8.192 39.573 8.192 40.202 8.016 40.746 7.664 41.29 7.312 41.711 6.821 42.01 6.192 42.319 5.573 42.474 4.843 42.474 4 42.474 3.168 42.319 2.437 42.01 1.808 41.711 1.179 41.29 .688 40.746 .336 40.202-.016 39.573-.192 38.858-.192 38.282-.192 37.77-.064 37.322 .192 36.885 .459 36.522 .821 36.234 1.28V-3.2H34.714ZM38.49 1.184C38.97 1.184 39.391 1.301 39.754 1.536 40.117 1.781 40.399 2.112 40.602 2.528 40.815 2.955 40.922 3.445 40.922 4 40.922 4.555 40.821 5.04 40.618 5.456 40.415 5.883 40.133 6.213 39.77 6.448 39.407 6.693 38.986 6.816 38.506 6.816 38.069 6.816 37.674 6.693 37.322 6.448 36.981 6.213 36.714 5.883 36.522 5.456 36.33 5.029 36.234 4.544 36.234 4 36.234 3.445 36.33 2.955 36.522 2.528 36.714 2.112 36.981 1.781 37.322 1.536 37.663 1.301 38.053 1.184 38.49 1.184ZM43.078 0ZM44.134 0V11.2H45.654V0H44.134ZM46.703 0ZM50.319-.192C49.37-.192 48.628 .021 48.095 .448 47.572 .885 47.311 1.488 47.311 2.256 47.311 3.077 47.583 3.701 48.127 4.128 48.682 4.565 49.45 4.784 50.431 4.784H52.575C52.511 5.467 52.33 5.979 52.031 6.32 51.743 6.672 51.306 6.848 50.719 6.848 50.303 6.848 49.94 6.763 49.631 6.592 49.332 6.421 49.082 6.155 48.879 5.792L47.535 6.304C47.727 6.667 47.967 6.987 48.255 7.264 48.543 7.552 48.89 7.776 49.295 7.936 49.7 8.107 50.175 8.192 50.719 8.192 51.476 8.192 52.106 8.043 52.607 7.744 53.108 7.445 53.482 7.013 53.727 6.448 53.983 5.883 54.106 5.184 54.095 4.352L54.079 0H52.671L52.623 1.024C52.388 .64 52.079 .341 51.695 .128 51.311-.085 50.852-.192 50.319-.192ZM50.447 1.104C50.884 1.104 51.263 1.195 51.583 1.376 51.903 1.568 52.154 1.829 52.335 2.16 52.516 2.501 52.607 2.891 52.607 3.328V3.584H50.847C50.111 3.584 49.594 3.467 49.295 3.232 48.996 3.008 48.847 2.693 48.847 2.288 48.847 1.915 48.986 1.621 49.263 1.408 49.551 1.205 49.946 1.104 50.447 1.104ZM54.813 0ZM56.845-3.392C56.61-3.392 56.348-3.349 56.061-3.264 55.783-3.179 55.495-3.067 55.196-2.928L55.757-1.68C55.991-1.787 56.194-1.867 56.365-1.92 56.546-1.973 56.69-2 56.797-2 57.063-2 57.287-1.925 57.468-1.776 57.66-1.627 57.815-1.419 57.932-1.152L58.429 .048 54.94 8H56.556L59.148 1.792 61.708 8H63.34L59.549-.992C59.346-1.483 59.132-1.909 58.909-2.272 58.685-2.635 58.407-2.912 58.076-3.104 57.757-3.296 57.346-3.392 56.845-3.392ZM63.25 0ZM67.842-.192C67.063-.192 66.375-.016 65.778 .336 65.181 .699 64.711 1.195 64.37 1.824 64.029 2.453 63.858 3.179 63.858 4 63.858 4.821 64.029 5.547 64.37 6.176 64.711 6.805 65.181 7.296 65.778 7.648 66.386 8.011 67.079 8.192 67.858 8.192 68.594 8.192 69.239 8.005 69.794 7.632 70.349 7.269 70.781 6.747 71.09 6.064 71.41 5.392 71.57 4.597 71.57 3.68H65.41C65.463 2.891 65.725 2.272 66.194 1.824 66.674 1.387 67.261 1.168 67.954 1.168 68.487 1.168 68.93 1.291 69.282 1.536 69.645 1.792 69.927 2.112 70.13 2.496L71.442 1.888C71.229 1.472 70.951 1.104 70.61 .784 70.269 .475 69.863 .235 69.394 .064 68.935-.107 68.418-.192 67.842-.192ZM65.506 4.88H69.938C69.906 5.307 69.789 5.664 69.586 5.952 69.394 6.251 69.143 6.48 68.834 6.64 68.535 6.8 68.199 6.88 67.826 6.88 67.463 6.88 67.111 6.8 66.77 6.64 66.429 6.491 66.141 6.267 65.906 5.968 65.682 5.669 65.549 5.307 65.506 4.88ZM72.016 0ZM73.072 0V8H74.592V6.56C74.912 7.061 75.322 7.429 75.824 7.664 76.336 7.909 76.869 8.032 77.424 8.032V6.592C76.944 6.592 76.485 6.517 76.048 6.368 75.621 6.229 75.269 5.995 74.992 5.664 74.725 5.344 74.592 4.907 74.592 4.352V0H73.072Z" fill="#ffffff"/>
<path transform="matrix(1,0,0,-1,92.60615,127.26312)" d="M0 0C-.312-.312-.312-.819 0-1.131 .312-1.444 .819-1.444 1.131-1.131L.566-.566 0 0ZM6.788 4.525C7.101 4.838 7.101 5.344 6.788 5.657 6.476 5.969 5.969 5.969 5.657 5.657L6.223 5.091 6.788 4.525ZM-.99 2.404C-.677 2.717-.677 3.223-.99 3.536-1.302 3.848-1.809 3.848-2.121 3.536L-1.555 2.97-.99 2.404ZM-2.969 1.556-2.404 .99-2.969 1.556ZM2.688-4.101 3.253-4.666H3.254L2.688-4.101ZM4.666-3.252C4.979-2.94 4.978-2.433 4.666-2.121 4.353-1.808 3.847-1.809 3.534-2.121L4.1-2.687 4.666-3.252ZM2.121 7.779C1.809 7.466 1.809 6.96 2.121 6.647 2.434 6.335 2.94 6.335 3.252 6.647L2.687 7.213 2.121 7.779ZM4.101 8.627 4.667 8.062 4.101 8.627ZM9.757 2.97 9.192 3.536 9.757 2.97ZM7.778 2.122C7.466 1.809 7.466 1.302 7.778 .99 8.091 .678 8.597 .678 8.91 .99L8.344 1.556 7.778 2.122ZM.566-.566 1.131-1.131 6.788 4.525 6.223 5.091 5.657 5.657 0 0 .566-.566ZM-1.555 2.97-2.121 3.536-3.535 2.122-2.969 1.556-2.404 .99-.99 2.404-1.555 2.97ZM-2.969 1.556-3.535 2.122C-5.41 .247-5.41-2.792-3.536-4.667L-2.97-4.101-2.404-3.535C-3.654-2.286-3.654-.26-2.404 .99L-2.969 1.556ZM-2.97-4.101-3.536-4.667C-1.661-6.541 1.379-6.541 3.253-4.666L2.688-4.101 2.122-3.535C.872-4.785-1.155-4.785-2.404-3.535L-2.97-4.101ZM2.688-4.101 3.254-4.666 4.666-3.252 4.1-2.687 3.534-2.121 2.122-3.535 2.688-4.101ZM2.687 7.213 3.252 6.647 4.667 8.062 4.101 8.627 3.535 9.193 2.121 7.779 2.687 7.213ZM4.101 8.627 4.667 8.062C5.916 9.311 7.942 9.311 9.192 8.061L9.758 8.627 10.323 9.193C8.449 11.067 5.41 11.068 3.535 9.193L4.101 8.627ZM9.758 8.627 9.192 8.061C10.442 6.812 10.441 4.786 9.192 3.536L9.757 2.97 10.323 2.404C12.198 4.279 12.198 7.318 10.323 9.193L9.758 8.627ZM9.757 2.97 9.192 3.536 7.778 2.122 8.344 1.556 8.91 .99 10.323 2.405 9.757 2.97Z" fill="#ffffff"/>
<path transform="matrix(1,0,0,-1,116,131)" d="M0 0ZM5.04-.192C4.443-.192 3.899-.123 3.408 .016 2.928 .155 2.507 .341 2.144 .576 1.792 .821 1.499 1.093 1.264 1.392 1.029 1.691 .864 2.005 .768 2.336L2.288 2.832C2.448 2.395 2.752 2.016 3.2 1.696 3.648 1.376 4.197 1.211 4.848 1.2 5.637 1.2 6.256 1.355 6.704 1.664 7.163 1.984 7.392 2.405 7.392 2.928 7.392 3.408 7.195 3.797 6.8 4.096 6.405 4.405 5.883 4.64 5.232 4.8L3.936 5.136C3.424 5.275 2.955 5.472 2.528 5.728 2.112 5.984 1.781 6.309 1.536 6.704 1.291 7.099 1.168 7.573 1.168 8.128 1.168 9.152 1.499 9.952 2.16 10.528 2.832 11.104 3.797 11.392 5.056 11.392 5.781 11.392 6.411 11.275 6.944 11.04 7.477 10.816 7.915 10.517 8.256 10.144 8.608 9.771 8.859 9.36 9.008 8.912L7.488 8.4C7.307 8.88 6.997 9.264 6.56 9.552 6.123 9.851 5.584 10 4.944 10 4.272 10 3.739 9.84 3.344 9.52 2.96 9.2 2.768 8.763 2.768 8.208 2.768 7.739 2.917 7.376 3.216 7.12 3.525 6.875 3.936 6.688 4.448 6.56L5.744 6.24C6.789 5.984 7.595 5.557 8.16 4.96 8.736 4.373 9.024 3.728 9.024 3.024 9.024 2.416 8.869 1.867 8.56 1.376 8.261 .896 7.813 .512 7.216 .224 6.629-.053 5.904-.192 5.04-.192ZM9.797 0ZM10.869 0V11.2H12.373V6.864C12.64 7.291 12.981 7.616 13.397 7.84 13.813 8.075 14.293 8.192 14.837 8.192 15.466 8.192 16.01 8.064 16.469 7.808 16.928 7.552 17.285 7.152 17.541 6.608 17.797 6.075 17.92 5.371 17.909 4.496V0H16.405V4.096C16.405 4.821 16.32 5.371 16.149 5.744 15.978 6.128 15.744 6.395 15.445 6.544 15.157 6.693 14.826 6.773 14.453 6.784 13.792 6.784 13.28 6.555 12.917 6.096 12.554 5.637 12.373 4.992 12.373 4.16V0H10.869ZM18.766 0ZM22.382-.192C21.432-.192 20.691 .021 20.158 .448 19.635 .885 19.374 1.488 19.374 2.256 19.374 3.077 19.646 3.701 20.19 4.128 20.744 4.565 21.512 4.784 22.494 4.784H24.638C24.574 5.467 24.392 5.979 24.094 6.32 23.806 6.672 23.368 6.848 22.782 6.848 22.366 6.848 22.003 6.763 21.694 6.592 21.395 6.421 21.144 6.155 20.942 5.792L19.598 6.304C19.79 6.667 20.03 6.987 20.318 7.264 20.606 7.552 20.952 7.776 21.358 7.936 21.763 8.107 22.238 8.192 22.782 8.192 23.539 8.192 24.168 8.043 24.67 7.744 25.171 7.445 25.544 7.013 25.79 6.448 26.046 5.883 26.168 5.184 26.158 4.352L26.142 0H24.734L24.686 1.024C24.451 .64 24.142 .341 23.758 .128 23.374-.085 22.915-.192 22.382-.192ZM22.51 1.104C22.947 1.104 23.326 1.195 23.646 1.376 23.966 1.568 24.216 1.829 24.398 2.16 24.579 2.501 24.67 2.891 24.67 3.328V3.584H22.91C22.174 3.584 21.656 3.467 21.358 3.232 21.059 3.008 20.91 2.693 20.91 2.288 20.91 1.915 21.048 1.621 21.326 1.408 21.614 1.205 22.008 1.104 22.51 1.104ZM27.016 0ZM28.072 0V8H29.592V6.56C29.912 7.061 30.322 7.429 30.824 7.664 31.336 7.909 31.869 8.032 32.424 8.032V6.592C31.944 6.592 31.485 6.517 31.048 6.368 30.621 6.229 30.269 5.995 29.992 5.664 29.725 5.344 29.592 4.907 29.592 4.352V0H28.072ZM32.594 0ZM37.186-.192C36.407-.192 35.719-.016 35.122 .336 34.524 .699 34.055 1.195 33.714 1.824 33.372 2.453 33.202 3.179 33.202 4 33.202 4.821 33.372 5.547 33.714 6.176 34.055 6.805 34.524 7.296 35.122 7.648 35.73 8.011 36.423 8.192 37.202 8.192 37.938 8.192 38.583 8.005 39.138 7.632 39.692 7.269 40.124 6.747 40.434 6.064 40.754 5.392 40.914 4.597 40.914 3.68H34.754C34.807 2.891 35.068 2.272 35.538 1.824 36.018 1.387 36.604 1.168 37.298 1.168 37.831 1.168 38.274 1.291 38.626 1.536 38.988 1.792 39.271 2.112 39.474 2.496L40.786 1.888C40.572 1.472 40.295 1.104 39.954 .784 39.612 .475 39.207 .235 38.738 .064 38.279-.107 37.762-.192 37.186-.192ZM34.85 4.88H39.282C39.25 5.307 39.132 5.664 38.93 5.952 38.738 6.251 38.487 6.48 38.178 6.64 37.879 6.8 37.543 6.88 37.17 6.88 36.807 6.88 36.455 6.8 36.114 6.64 35.772 6.491 35.484 6.267 35.25 5.968 35.026 5.669 34.892 5.307 34.85 4.88ZM45.266 0ZM46.418 0V8H47.938V0H46.418ZM47.186 9.696C46.94 9.696 46.727 9.787 46.546 9.968 46.364 10.16 46.274 10.379 46.274 10.624 46.274 10.88 46.364 11.093 46.546 11.264 46.727 11.445 46.94 11.536 47.186 11.536 47.442 11.536 47.655 11.445 47.826 11.264 48.007 11.093 48.098 10.88 48.098 10.624 48.098 10.379 48.007 10.16 47.826 9.968 47.655 9.787 47.442 9.696 47.186 9.696ZM49.109 0ZM50.165 0V8H51.589L51.653 6.832C51.92 7.269 52.261 7.605 52.677 7.84 53.104 8.075 53.589 8.192 54.133 8.192 54.763 8.192 55.307 8.064 55.765 7.808 56.235 7.552 56.592 7.152 56.837 6.608 57.093 6.075 57.221 5.371 57.221 4.496V0H55.701V4.096C55.701 4.821 55.616 5.371 55.445 5.744 55.285 6.128 55.056 6.395 54.757 6.544 54.469 6.693 54.133 6.773 53.749 6.784 53.099 6.784 52.592 6.555 52.229 6.096 51.867 5.637 51.685 4.992 51.685 4.16V0H50.165ZM57.938 0ZM61.41 0 58.082 8H59.633L62.178 1.744 64.705 8H66.289L62.945 0H61.41ZM66.422 0ZM67.574 0V8H69.094V0H67.574ZM68.342 9.696C68.097 9.696 67.883 9.787 67.702 9.968 67.521 10.16 67.43 10.379 67.43 10.624 67.43 10.88 67.521 11.093 67.702 11.264 67.883 11.445 68.097 11.536 68.342 11.536 68.598 11.536 68.811 11.445 68.982 11.264 69.163 11.093 69.254 10.88 69.254 10.624 69.254 10.379 69.163 10.16 68.982 9.968 68.811 9.787 68.598 9.696 68.342 9.696ZM70.266 0ZM74.41-.192C73.61-.192 72.991 .011 72.554 .416 72.116 .832 71.898 1.424 71.898 2.192V6.688H70.538V8H71.898V10.496H73.418V8H75.69V6.688H73.418V2.416C73.418 2.021 73.514 1.717 73.706 1.504 73.908 1.301 74.196 1.2 74.57 1.2 74.676 1.2 74.794 1.221 74.922 1.264 75.05 1.307 75.204 1.392 75.386 1.52L75.962 .336C75.684 .155 75.418 .021 75.162-.064 74.916-.149 74.666-.192 74.41-.192ZM76.344 0ZM79.96-.192C79.01-.192 78.269 .021 77.736 .448 77.213 .885 76.952 1.488 76.952 2.256 76.952 3.077 77.224 3.701 77.768 4.128 78.322 4.565 79.09 4.784 80.072 4.784H82.216C82.152 5.467 81.97 5.979 81.672 6.32 81.384 6.672 80.946 6.848 80.36 6.848 79.944 6.848 79.581 6.763 79.272 6.592 78.973 6.421 78.722 6.155 78.52 5.792L77.176 6.304C77.368 6.667 77.608 6.987 77.896 7.264 78.184 7.552 78.53 7.776 78.936 7.936 79.341 8.107 79.816 8.192 80.36 8.192 81.117 8.192 81.746 8.043 82.248 7.744 82.749 7.445 83.122 7.013 83.368 6.448 83.624 5.883 83.746 5.184 83.736 4.352L83.72 0H82.312L82.264 1.024C82.029 .64 81.72 .341 81.336 .128 80.952-.085 80.493-.192 79.96-.192ZM80.088 1.104C80.525 1.104 80.904 1.195 81.224 1.376 81.544 1.568 81.794 1.829 81.976 2.16 82.157 2.501 82.248 2.891 82.248 3.328V3.584H80.488C79.752 3.584 79.234 3.467 78.936 3.232 78.637 3.008 78.488 2.693 78.488 2.288 78.488 1.915 78.626 1.621 78.904 1.408 79.192 1.205 79.586 1.104 80.088 1.104ZM84.594 0ZM88.738-.192C87.938-.192 87.319 .011 86.882 .416 86.444 .832 86.226 1.424 86.226 2.192V6.688H84.866V8H86.226V10.496H87.746V8H90.018V6.688H87.746V2.416C87.746 2.021 87.842 1.717 88.034 1.504 88.236 1.301 88.524 1.2 88.898 1.2 89.004 1.2 89.122 1.221 89.25 1.264 89.378 1.307 89.532 1.392 89.714 1.52L90.29 .336C90.012 .155 89.746 .021 89.49-.064 89.244-.149 88.994-.192 88.738-.192ZM90.734 0ZM91.886 0V8H93.406V0H91.886ZM92.654 9.696C92.409 9.696 92.196 9.787 92.014 9.968 91.833 10.16 91.742 10.379 91.742 10.624 91.742 10.88 91.833 11.093 92.014 11.264 92.196 11.445 92.409 11.536 92.654 11.536 92.91 11.536 93.124 11.445 93.294 11.264 93.476 11.093 93.566 10.88 93.566 10.624 93.566 10.379 93.476 10.16 93.294 9.968 93.124 9.787 92.91 9.696 92.654 9.696ZM94.578 0ZM99.25-.192C98.45-.192 97.746-.016 97.138 .336 96.53 .699 96.05 1.195 95.698 1.824 95.357 2.453 95.186 3.179 95.186 4 95.186 4.821 95.357 5.547 95.698 6.176 96.039 6.805 96.514 7.296 97.122 7.648 97.73 8.011 98.429 8.192 99.218 8.192 100.007 8.192 100.706 8.011 101.314 7.648 101.922 7.296 102.397 6.805 102.738 6.176 103.079 5.547 103.25 4.821 103.25 4 103.25 3.179 103.079 2.453 102.738 1.824 102.397 1.195 101.922 .699 101.314 .336 100.717-.016 100.029-.192 99.25-.192ZM99.25 1.2C99.73 1.2 100.157 1.317 100.53 1.552 100.903 1.797 101.191 2.128 101.394 2.544 101.607 2.96 101.714 3.445 101.714 4 101.714 4.555 101.607 5.04 101.394 5.456 101.191 5.872 100.898 6.197 100.514 6.432 100.13 6.677 99.698 6.8 99.218 6.8 98.727 6.8 98.295 6.677 97.922 6.432 97.549 6.197 97.255 5.872 97.042 5.456 96.829 5.04 96.722 4.555 96.722 4 96.722 3.445 96.829 2.96 97.042 2.544 97.255 2.128 97.554 1.797 97.938 1.552 98.322 1.317 98.759 1.2 99.25 1.2ZM103.859 0ZM104.915 0V8H106.339L106.403 6.832C106.67 7.269 107.011 7.605 107.427 7.84 107.854 8.075 108.339 8.192 108.883 8.192 109.513 8.192 110.057 8.064 110.515 7.808 110.985 7.552 111.342 7.152 111.587 6.608 111.843 6.075 111.971 5.371 111.971 4.496V0H110.451V4.096C110.451 4.821 110.366 5.371 110.195 5.744 110.035 6.128 109.806 6.395 109.507 6.544 109.219 6.693 108.883 6.773 108.499 6.784 107.849 6.784 107.342 6.555 106.979 6.096 106.617 5.637 106.435 4.992 106.435 4.16V0H104.915ZM116.734 0ZM117.79 0V11.2H119.31V0H117.79ZM120.359 0ZM121.511 0V8H123.031V0H121.511ZM122.279 9.696C122.034 9.696 121.821 9.787 121.639 9.968 121.458 10.16 121.367 10.379 121.367 10.624 121.367 10.88 121.458 11.093 121.639 11.264 121.821 11.445 122.034 11.536 122.279 11.536 122.535 11.536 122.749 11.445 122.919 11.264 123.101 11.093 123.191 10.88 123.191 10.624 123.191 10.379 123.101 10.16 122.919 9.968 122.749 9.787 122.535 9.696 122.279 9.696ZM124.203 0ZM125.259 0V8H126.683L126.747 6.832C127.014 7.269 127.355 7.605 127.771 7.84 128.198 8.075 128.683 8.192 129.227 8.192 129.856 8.192 130.4 8.064 130.859 7.808 131.328 7.552 131.686 7.152 131.931 6.608 132.187 6.075 132.315 5.371 132.315 4.496V0H130.795V4.096C130.795 4.821 130.71 5.371 130.539 5.744 130.379 6.128 130.15 6.395 129.851 6.544 129.563 6.693 129.227 6.773 128.843 6.784 128.192 6.784 127.686 6.555 127.323 6.096 126.96 5.637 126.779 4.992 126.779 4.16V0H125.259ZM133.172 0ZM134.228 0V11.2H135.748V4.56L138.964 8H140.82L137.844 4.752 141.124 0H139.3L136.852 3.664 135.748 2.48V0H134.228Z" fill="#ffffff"/>
</g>
</g>
</g>
</g>
</g>
</g>
<use data-text="A" xlink:href="#font_10_8" transform="matrix(16,0,0,-16,116,83)"/>
<use data-text="d" xlink:href="#font_10_7" transform="matrix(16,0,0,-16,126.85921,83)"/>
<use data-text="d" xlink:href="#font_10_7" transform="matrix(16,0,0,-16,136.26721,83)"/>
<use data-text=" " xlink:href="#font_10_5" transform="matrix(16,0,0,-16,145.67522,83)"/>
<use data-text="p" xlink:href="#font_10_3" transform="matrix(16,0,0,-16,149.57923,83)"/>
<use data-text="l" xlink:href="#font_10_4" transform="matrix(16,0,0,-16,159.08322,83)"/>
<use data-text="a" xlink:href="#font_10_2" transform="matrix(16,0,0,-16,162.71523,83)"/>
<use data-text="y" xlink:href="#font_10_1" transform="matrix(16,0,0,-16,170.82563,83)"/>
<use data-text="e" xlink:href="#font_10_6" transform="matrix(16,0,0,-16,179.26242,83)"/>
<use data-text="r" xlink:href="#font_10_0" transform="matrix(16,0,0,-16,188.03043,83)"/>
<use data-text="S" xlink:href="#font_10_21" transform="matrix(16,0,0,-16,116,131)"/>
<use data-text="h" xlink:href="#font_10_18" transform="matrix(16,0,0,-16,125.792,131)"/>
<use data-text="a" xlink:href="#font_10_2" transform="matrix(16,0,0,-16,134.768,131)"/>
<use data-text="r" xlink:href="#font_10_0" transform="matrix(16,0,0,-16,143.024,131)"/>
<use data-text="e" xlink:href="#font_10_6" transform="matrix(16,0,0,-16,148.608,131)"/>
<use data-text=" " xlink:href="#font_10_5" transform="matrix(16,0,0,-16,157.376,131)"/>
<use data-text="i" xlink:href="#font_10_20" transform="matrix(16,0,0,-16,161.28002,131)"/>
<use data-text="n" xlink:href="#font_10_17" transform="matrix(16,0,0,-16,165.12001,131)"/>
<use data-text="v" xlink:href="#font_10_11" transform="matrix(16,0,0,-16,173.9488,131)"/>
<use data-text="i" xlink:href="#font_10_20" transform="matrix(16,0,0,-16,182.4288,131)"/>
<use data-text="t" xlink:href="#font_10_16" transform="matrix(16,0,0,-16,186.2688,131)"/>
<use data-text="a" xlink:href="#font_10_2" transform="matrix(16,0,0,-16,192.3456,131)"/>
<use data-text="t" xlink:href="#font_10_16" transform="matrix(16,0,0,-16,200.6016,131)"/>
<use data-text="i" xlink:href="#font_10_20" transform="matrix(16,0,0,-16,206.74559,131)"/>
<use data-text="o" xlink:href="#font_10_13" transform="matrix(16,0,0,-16,210.58559,131)"/>
<use data-text="n" xlink:href="#font_10_17" transform="matrix(16,0,0,-16,219.86559,131)"/>
<use data-text=" " xlink:href="#font_10_5" transform="matrix(16,0,0,-16,228.84159,131)"/>
<use data-text="l" xlink:href="#font_10_4" transform="matrix(16,0,0,-16,232.74559,131)"/>
<use data-text="i" xlink:href="#font_10_20" transform="matrix(16,0,0,-16,236.3776,131)"/>
<use data-text="n" xlink:href="#font_10_17" transform="matrix(16,0,0,-16,240.21759,131)"/>
<use data-text="k" xlink:href="#font_10_10" transform="matrix(16,0,0,-16,249.19359,131)"/>
</g>
</svg>
