<svg xmlns="http://www.w3.org/2000/svg" xmlns:xlink="http://www.w3.org/1999/xlink" xmlns:inkscape="http://www.inkscape.org/namespaces/inkscape" version="1.1" width="375" height="812" viewBox="0 0 375 812">
<defs>
<g id="mask_1_contents">
<rect x="0" y="0" width="100%" height="100%" fill-opacity="0"/>
<g>
<clipPath id="clip_2">
<path transform="matrix(1,0,0,-1,0,812)" d="M0 0H375V812H0Z"/>
</clipPath>
<g clip-path="url(#clip_2)">
<g id="mask_3_contents">
<rect x="0" y="0" width="100%" height="100%" fill-opacity="0"/>
<g>
<clipPath id="clip_4">
<path transform="matrix(1,0,0,-1,0,812)" d="M0 0H375V812H0Z"/>
</clipPath>
<g clip-path="url(#clip_4)">
<path transform="matrix(1,0,0,-1,52.5,464.75)" d="M0 135.1C0 142.94074 0 146.8611 1.525909 149.85587 2.868136 152.49015 5.009864 154.63187 7.644133 155.97409 10.638897 157.5 14.559264 157.5 22.4 157.5H247.6C255.44074 157.5 259.3611 157.5 262.35588 155.97409 264.99015 154.63187 267.13188 152.49015 268.4741 149.85587 270 146.8611 270 142.94074 270 135.1V22.399994C270 14.559265 270 10.638901 268.4741 7.644135 267.13188 5.009857 264.99015 2.868134 262.35588 1.525909 259.3611 0 255.44074 0 247.6 0H22.399992C14.559262 0 10.638897 0 7.644133 1.525909 5.009864 2.868134 2.868136 5.009857 1.525909 7.644135 0 10.638901 0 14.559265 0 22.399994V135.1Z"/>
</g>
</g>
</g>
<mask id="mask_3" mask-type="alpha">
<use xlink:href="#mask_3_contents"/>
</mask>
<g mask="url(#mask_3)">
<g>
<clipPath id="clip_5">
<path transform="matrix(1,0,0,-1,0,812)" d="M0 0H375V812H0Z"/>
</clipPath>
<g clip-path="url(#clip_5)">
<path transform="matrix(1,0,0,-1,52.5,464.75)" d="M0 135.1C0 142.94074 0 146.8611 1.525909 149.85587 2.868136 152.49015 5.009864 154.63187 7.644133 155.97409 10.638897 157.5 14.559264 157.5 22.4 157.5H247.6C255.44074 157.5 259.3611 157.5 262.35588 155.97409 264.99015 154.63187 267.13188 152.49015 268.4741 149.85587 270 146.8611 270 142.94074 270 135.1V22.399994C270 14.559265 270 10.638901 268.4741 7.644135 267.13188 5.009857 264.99015 2.868134 262.35588 1.525909 259.3611 0 255.44074 0 247.6 0H22.399992C14.559262 0 10.638897 0 7.644133 1.525909 5.009864 2.868134 2.868136 5.009857 1.525909 7.644135 0 10.638901 0 14.559265 0 22.399994V135.1Z"/>
<path transform="matrix(1,0,0,-1,143,402.96974)" d="M.191956-.780273ZM6.666565-1.079102C3.271545-1.079102 1.163147 1.328125 1.163147 5.196289V5.212891C1.163147 9.097656 3.263245 11.496582 6.658264 11.496582 9.38092 11.496582 11.447815 9.77002 11.730042 7.321289V7.254883H9.629944L9.621643 7.288086C9.314514 8.70752 8.169006 9.645508 6.658264 9.645508 4.624573 9.645508 3.354553 7.943848 3.354553 5.221191V5.20459C3.354553 2.473633 4.624573 .771973 6.666565 .771973 8.185608 .771973 9.314514 1.618652 9.621643 2.938477L9.629944 2.97998H11.730042V2.921875C11.414612 .522949 9.430725-1.079102 6.666565-1.079102ZM12.235127-.780273ZM17.414814-.962891C14.692159-.962891 13.048604 .813477 13.048604 3.751953V3.768555C13.048604 6.682129 14.717061 8.466797 17.414814 8.466797 20.120869 8.466797 21.781025 6.69043 21.781025 3.768555V3.751953C21.781025 .813477 20.12917-.962891 17.414814-.962891ZM17.414814 .713867C18.85085 .713867 19.664326 1.834473 19.664326 3.743652V3.760254C19.664326 5.669434 18.842549 6.79834 17.414814 6.79834 15.97878 6.79834 15.157002 5.669434 15.157002 3.760254V3.743652C15.157002 1.834473 15.97878 .713867 17.414814 .713867ZM22.186503-.780273ZM23.448222-3.793457V8.29248H25.515116V6.873047H25.656229C26.154276 7.86084 27.142069 8.441895 28.412089 8.441895 30.686503 8.441895 32.139139 6.632324 32.139139 3.760254V3.743652C32.139139 .85498 30.711405-.929688 28.412089-.929688 27.166972-.929688 26.129374-.31543 25.656229 .664062H25.515116V-3.793457H23.448222ZM27.764628 .813477C29.17576 .813477 30.03074 1.925781 30.03074 3.743652V3.760254C30.03074 5.586426 29.17576 6.69873 27.764628 6.69873 26.361796 6.69873 25.490214 5.586426 25.490214 3.768555V3.751953C25.490214 1.934082 26.361796 .813477 27.764628 .813477ZM32.204286-.780273ZM34.437196-3.967773C34.18817-3.967773 33.897645-3.959473 33.64862-3.93457V-2.349121C33.814638-2.365723 34.04706-2.374023 34.26288-2.374023 35.10956-2.374023 35.615907-2.025391 35.840028-1.203613L35.947938-.788574 32.70233 8.29248H34.960145L37.076845 1.203613H37.23456L39.342958 8.29248H41.51776L38.263856-.971191C37.48358-3.245605 36.445985-3.967773 34.437196-3.967773ZM45.748636-.780273ZM50.89512-.962891C48.197366-.962891 46.56211 .84668 46.56211 3.735352V3.743652C46.56211 6.599121 48.213968 8.466797 50.79551 8.466797 53.377054 8.466797 54.970804 6.657227 54.970804 3.917969V3.237305H48.629007C48.653909 1.610352 49.53379 .664062 50.936624 .664062 52.057229 .664062 52.69639 1.228516 52.895608 1.643555L52.92051 1.70166H54.887796L54.862894 1.626953C54.572366 .456543 53.36045-.962891 50.89512-.962891ZM50.82041 6.848145C49.666604 6.848145 48.80332 6.067871 48.645608 4.623535H52.953714C52.8126 6.109375 51.97422 6.848145 50.82041 6.848145ZM55.36798-.780273ZM56.6297-.780273V8.29248H58.696596V6.881348H58.837709C59.227846 7.894043 60.14093 8.466797 61.32794 8.466797 62.556459 8.466797 63.45294 7.835938 63.84308 6.831543H63.98419C64.42413 7.819336 65.47003 8.466797 66.73175 8.466797 68.55792 8.466797 69.653629 7.346191 69.653629 5.461914V-.780273H67.58673V4.955566C67.58673 6.134277 67.04718 6.731934 65.94318 6.731934 64.864078 6.731934 64.16681 5.926758 64.16681 4.88916V-.780273H62.099916V5.10498C62.099916 6.109375 61.477357 6.731934 60.46466 6.731934 59.443666 6.731934 58.696596 5.868652 58.696596 4.739746V-.780273H56.6297ZM70.43263-.780273ZM74.167987-.929688C72.44142-.929688 71.188 .132812 71.188 1.784668V1.80127C71.188 3.419922 72.42482 4.366211 74.63283 4.499023L76.96535 4.640137V5.42041C76.96535 6.325195 76.37599 6.823242 75.26369 6.823242 74.3174 6.823242 73.70314 6.48291 73.49562 5.885254L73.48732 5.852051H71.53664L71.54494 5.926758C71.744159 7.454102 73.20509 8.466797 75.3633 8.466797 77.695819 8.466797 79.00734 7.337891 79.00734 5.42041V-.780273H76.96535V.464844H76.824237C76.32619-.415039 75.3633-.929688 74.167987-.929688ZM73.229999 1.884277C73.229999 1.112305 73.88576 .655762 74.79884 .655762 76.04396 .655762 76.96535 1.469238 76.96535 2.54834V3.278809L74.923358 3.145996C73.76955 3.071289 73.229999 2.647949 73.229999 1.900879V1.884277ZM79.81956-.780273ZM82.143779 9.811523C81.46311 9.811523 80.90696 10.351074 80.90696 11.031738 80.90696 11.704102 81.46311 12.251953 82.143779 12.251953 82.81614 12.251953 83.37229 11.704102 83.37229 11.031738 83.37229 10.351074 82.81614 9.811523 82.143779 9.811523ZM81.10618-.780273V8.29248H83.17307V-.780273H81.10618ZM84.043399-.780273ZM85.38812-.780273V11.803711H87.45502V-.780273H85.38812Z"/>
<path transform="matrix(1,0,0,-1,165.5,444.0332)" d="M.254477-4.216797ZM6.604574-4.499023C3.350668-4.499023 1.316977-2.091797 1.316977 1.759766V1.776367C1.316977 5.63623 3.342367 8.043457 6.596273 8.043457 9.119711 8.043457 11.086996 6.458008 11.44393 4.158691L11.435629 4.14209H9.933187L9.924887 4.158691C9.526449 5.694336 8.248129 6.665527 6.596273 6.665527 4.296957 6.665527 2.852621 4.772949 2.852621 1.776367V1.759766C2.852621-1.236816 4.296957-3.121094 6.604574-3.121094 8.273031-3.121094 9.543051-2.266113 9.916586-.888184L9.933187-.871582H11.44393V-.888184C11.045492-3.07959 9.152914-4.499023 6.604574-4.499023ZM12.015422-4.216797ZM13.443156-4.216797V8.28418H14.887492V-4.216797H13.443156ZM15.907227-4.216797ZM20.9292-4.374512C18.38086-4.374512 16.80371-2.614746 16.80371 .249023V.265625C16.80371 3.137695 18.38086 4.88916 20.9292 4.88916 23.47754 4.88916 25.054688 3.137695 25.054688 .265625V.249023C25.054688-2.614746 23.47754-4.374512 20.9292-4.374512ZM20.9292-3.096191C22.622559-3.096191 23.577149-1.859375 23.577149 .249023V.265625C23.577149 2.382324 22.622559 3.61084 20.9292 3.61084 19.23584 3.61084 18.28125 2.382324 18.28125 .265625V.249023C18.28125-1.859375 19.23584-3.096191 20.9292-3.096191ZM25.543173-4.216797ZM29.959189-4.374512C27.967001-4.374512 26.597373-3.411621 26.431357-1.934082H27.908896C28.149619-2.681152 28.863486-3.170898 30.008994-3.170898 31.212607-3.170898 32.06759-2.598145 32.06759-1.784668V-1.768066C32.06759-1.162109 31.611044-.73877 30.50704-.473145L29.12081-.141113C27.444052 .257324 26.68868 .987793 26.68868 2.274414V2.282715C26.68868 3.768555 28.116415 4.88916 30.017294 4.88916 31.89327 4.88916 33.196496 3.951172 33.395715 2.490234H31.976279C31.78536 3.195801 31.088095 3.685547 30.008994 3.685547 28.946494 3.685547 28.16622 3.137695 28.16622 2.349121V2.33252C28.16622 1.726562 28.614462 1.344727 29.668662 1.087402L31.04659 .755371C32.73165 .348633 33.545129-.381836 33.545129-1.660156V-1.676758C33.545129-3.270508 31.99288-4.374512 29.959189-4.374512ZM34.033609-4.216797ZM39.030679-4.374512C36.474039-4.374512 34.93009-2.581543 34.93009 .224121V.232422C34.93009 2.996582 36.50724 4.88916 38.93937 4.88916 41.3715 4.88916 42.849039 3.07959 42.849039 .406738V-.157715H36.40763C36.449136-2.008789 37.47013-3.087891 39.06388-3.087891 40.275796-3.087891 41.022867-2.515137 41.263589-1.975586L41.29679-1.900879H42.741128L42.724527-1.967285C42.417398-3.179199 41.139078-4.374512 39.030679-4.374512ZM38.93107 3.602539C37.602945 3.602539 36.59025 2.697754 36.432535 .996094H41.3798C41.230386 2.76416 40.250894 3.602539 38.93107 3.602539Z"/>
</g>
</g>
</g>
</g>
</g>
</g>
<filter id="tr_1">
<feComponentTransfer>
<feFuncA type="table" tableValues="0 1 1 1 1 1 1 1 1 1 1 1 1 1 1 1 1 1 1 1 1 1 1 1 1 1 1 1 1 1 1 1 1 1 1 1 1 1 1 1 1 1 1 1 1 1 1 1 1 1 1 1 1 1 1 1 1 1 1 1 1 1 1 1 1 1 1 1 1 1 1 1 1 1 1 1 1 1 1 1 1 1 1 1 1 1 1 1 1 1 1 1 1 1 1 1 1 1 1 1 1 1 1 1 1 1 1 1 1 1 1 1 1 1 1 1 1 1 1 1 1 1 1 1 1 1 1 1 1 1 1 1 1 1 1 1 1 1 1 1 1 1 1 1 1 1 1 1 1 1 1 1 1 1 1 1 1 1 1 1 1 1 1 1 1 1 1 1 1 1 1 1 1 1 1 1 1 1 1 1 1 1 1 1 1 1 1 1 1 1 1 1 1 1 1 1 1 1 1 1 1 1 1 1 1 1 1 1 1 1 1 1 1 1 1 1 1 1 1 1 1 1 1 1 1 1 1 1 1 1 1 1 1 1 1 1 1 1 1 1 1 1 1 1 1 1 1 1 1 1 1 1 1 1 1 1 "></feFuncA>
</feComponentTransfer>
</filter>
<mask id="mask_1" mask-type="alpha">
<use xlink:href="#mask_1_contents" filter="url(#tr_1)"/>
</mask>
<clipPath id="clip_6">
<path transform="matrix(1,0,0,-1,0,812)" d="M-9407.5-884.75H5355.5V1303.75H-9407.5Z"/>
</clipPath>
<mask id="mask_7">
<g transform="matrix(.6578877,0,0,.6580965,-6947,-127)">

</g>
</mask>
<g id="font_10_35">
</g>
<g id="font_10_11">
</g>
<g id="font_10_30">
</g>
<g id="font_10_32">
</g>
<g id="font_10_27">
</g>
<g id="font_10_26">
</g>
<g id="font_10_23">
</g>
<g id="font_10_28">
</g>
<g id="font_10_10">
</g>
<g id="font_10_21">
</g>
<g id="font_10_13">
</g>
<g id="font_10_12">
</g>
<g id="font_10_25">
</g>
<g id="font_10_24">
</g>
<g id="font_10_19">
</g>
<g id="font_10_29">
</g>
<g id="font_10_18">
</g>
<g id="font_10_17">
</g>
<g id="font_10_16">
</g>
<g id="font_10_15">
</g>
<g id="font_10_34">
</g>
<g id="font_10_5">
</g>
<g id="font_10_9">
</g>
<g id="font_10_7">
</g>
<g id="font_10_6">
</g>
<g id="font_10_4">
</g>
<g id="font_10_3">
</g>
<g id="font_10_8">
</g>
<g id="font_10_2">
</g>
<g id="font_10_1">
</g>
<g id="font_10_0">
</g>
<g id="font_10_14">
</g>
</defs>
<g>
<path transform="matrix(1,0,0,-1,0,0)" d="M0 0H375V-812H0V0Z" fill-opacity=".24"/>
<g mask="url(#mask_1)">
<g>
<g clip-path="url(#clip_6)">
<path transform="matrix(9842,0,0,-1459,-6947,1332)" d="M0 0H1V1H0Z" fill="#ffffff"/>
<g mask="url(#mask_7)">
<g transform="matrix(.996053,0,0,.99658468,-6947,-127)">

</g>
</g>
</g>
</g>
</g>
<path transform="matrix(1,0,0,-1,52.5,329.65)" d="M0 0C0 7.841 0 11.761 1.526 14.756 2.868 17.39 5.01 19.532 7.644 20.874 10.639 22.4 14.559 22.4 22.4 22.4H247.6C255.441 22.4 259.361 22.4 262.356 20.874 264.99 19.532 267.132 17.39 268.474 14.756 270 11.761 270 7.841 270 0V-112.7C270-120.541 270-124.461 268.474-127.456 267.132-130.09 264.99-132.232 262.356-133.574 259.361-135.1 255.441-135.1 247.6-135.1H22.4C14.559-135.1 10.639-135.1 7.644-133.574 5.01-132.232 2.868-130.09 1.526-127.456 0-124.461 0-120.541 0-112.7V0Z" fill="#3c4243"/>
<path transform="matrix(1,0,0,-1,81.5316,337.24998)" d="M0 0ZM3.548 0V8.131H.597V9.16H7.643V8.131H4.691V0H3.548ZM6.892 0ZM10.732-.121C8.783-.121 7.577 1.225 7.577 3.415V3.428C7.577 5.624 8.783 6.963 10.732 6.963 12.681 6.963 13.887 5.624 13.887 3.428V3.415C13.887 1.225 12.681-.121 10.732-.121ZM10.732 .857C12.027 .857 12.757 1.803 12.757 3.415V3.428C12.757 5.046 12.027 5.986 10.732 5.986 9.437 5.986 8.707 5.046 8.707 3.428V3.415C8.707 1.803 9.437 .857 10.732 .857ZM18.073 0ZM21.9-.121C19.983-.121 18.758 1.27 18.758 3.44V3.453C18.758 5.58 19.977 6.963 21.894 6.963 23.557 6.963 24.554 6.005 24.757 4.786L24.763 4.748H23.665L23.659 4.767C23.487 5.44 22.878 5.986 21.894 5.986 20.662 5.986 19.888 4.996 19.888 3.453V3.44C19.888 1.866 20.675 .857 21.894 .857 22.814 .857 23.398 1.263 23.652 2.025L23.665 2.063 24.757 2.069 24.744 2C24.465 .762 23.544-.121 21.9-.121ZM25.269 0ZM29.109-.121C27.161-.121 25.955 1.225 25.955 3.415V3.428C25.955 5.624 27.161 6.963 29.109 6.963 31.058 6.963 32.264 5.624 32.264 3.428V3.415C32.264 1.225 31.058-.121 29.109-.121ZM29.109 .857C30.404 .857 31.134 1.803 31.134 3.415V3.428C31.134 5.046 30.404 5.986 29.109 5.986 27.814 5.986 27.084 5.046 27.084 3.428V3.415C27.084 1.803 27.814 .857 29.109 .857ZM32.872 0ZM33.9 0V6.843H35.005V5.814H35.106C35.449 6.538 36.09 6.963 37.099 6.963 38.635 6.963 39.492 6.056 39.492 4.431V0H38.388V4.164C38.388 5.396 37.88 5.986 36.788 5.986 35.696 5.986 35.005 5.25 35.005 4.05V0H33.9ZM40.386 0ZM43.845-.051C42.436-.051 41.845 .47 41.845 1.777V5.929H40.766V6.843H41.845V8.614H42.988V6.843H44.486V5.929H42.988V2.057C42.988 1.25 43.267 .927 43.978 .927 44.175 .927 44.283 .933 44.486 .952V.013C44.27-.025 44.061-.051 43.845-.051ZM45.03 0ZM47.937-.121C46.636-.121 45.652 .667 45.652 1.911V1.923C45.652 3.142 46.554 3.847 48.147 3.942L50.108 4.062V4.685C50.108 5.529 49.594 5.986 48.572 5.986 47.753 5.986 47.214 5.681 47.036 5.148L47.03 5.129H45.925L45.932 5.167C46.109 6.24 47.15 6.963 48.61 6.963 50.28 6.963 51.213 6.106 51.213 4.685V0H50.108V1.009H50.007C49.575 .279 48.858-.121 47.937-.121ZM46.782 1.936C46.782 1.244 47.372 .838 48.166 .838 49.289 .838 50.108 1.574 50.108 2.552V3.174L48.28 3.06C47.239 2.996 46.782 2.628 46.782 1.949V1.936ZM52.125 0ZM55.953-.121C54.036-.121 52.811 1.27 52.811 3.44V3.453C52.811 5.58 54.029 6.963 55.946 6.963 57.609 6.963 58.606 6.005 58.809 4.786L58.815 4.748H57.717L57.711 4.767C57.54 5.44 56.93 5.986 55.946 5.986 54.715 5.986 53.94 4.996 53.94 3.453V3.44C53.94 1.866 54.728 .857 55.946 .857 56.867 .857 57.451 1.263 57.705 2.025L57.717 2.063 58.809 2.069 58.796 2C58.517 .762 57.597-.121 55.953-.121ZM59.448 0ZM62.908-.051C61.499-.051 60.908 .47 60.908 1.777V5.929H59.829V6.843H60.908V8.614H62.051V6.843H63.549V5.929H62.051V2.057C62.051 1.25 62.33 .927 63.041 .927 63.238 .927 63.346 .933 63.549 .952V.013C63.333-.025 63.124-.051 62.908-.051ZM67.671 0ZM70.991-.121C69.436-.121 68.636 .793 68.636 2.412V6.843H69.741V2.679C69.741 1.447 70.185 .857 71.277 .857 72.483 .857 73.124 1.593 73.124 2.793V6.843H74.228V0H73.124V1.022H73.022C72.686 .292 71.994-.121 70.991-.121ZM75.185 0ZM78.562-.121C77.039-.121 75.991 .616 75.864 1.746H76.994C77.178 1.174 77.724 .8 78.6 .8 79.521 .8 80.174 1.238 80.174 1.86V1.873C80.174 2.336 79.825 2.66 78.981 2.863L77.921 3.117C76.639 3.421 76.061 3.98 76.061 4.964V4.97C76.061 6.106 77.153 6.963 78.606 6.963 80.041 6.963 81.038 6.246 81.19 5.129H80.105C79.959 5.668 79.425 6.043 78.6 6.043 77.788 6.043 77.191 5.624 77.191 5.021V5.008C77.191 4.545 77.534 4.253 78.34 4.056L79.394 3.802C80.682 3.491 81.304 2.933 81.304 1.955V1.942C81.304 .724 80.117-.121 78.562-.121ZM85.49 0ZM86.518-2.285V6.843H87.623V5.751H87.724C88.143 6.513 88.905 6.963 89.857 6.963 91.59 6.963 92.726 5.561 92.726 3.428V3.415C92.726 1.27 91.596-.121 89.857-.121 88.918-.121 88.099 .349 87.724 1.079H87.623V-2.285H86.518ZM89.603 .857C90.854 .857 91.596 1.822 91.596 3.415V3.428C91.596 5.021 90.854 5.986 89.603 5.986 88.359 5.986 87.597 5.008 87.597 3.428V3.415C87.597 1.834 88.359 .857 89.603 .857ZM93.347 0ZM94.438 0V9.56H95.543V0H94.438ZM96.557 0ZM100.378-.121C98.423-.121 97.242 1.25 97.242 3.396V3.402C97.242 5.516 98.448 6.963 100.308 6.963 102.168 6.963 103.298 5.58 103.298 3.536V3.104H98.372C98.404 1.688 99.185 .863 100.403 .863 101.33 .863 101.901 1.301 102.085 1.714L102.111 1.771H103.215L103.203 1.72C102.968 .793 101.99-.121 100.378-.121ZM100.302 5.979C99.286 5.979 98.512 5.288 98.391 3.986H102.174C102.06 5.338 101.311 5.979 100.302 5.979ZM103.905 0ZM106.813-.121C105.511-.121 104.528 .667 104.528 1.911V1.923C104.528 3.142 105.429 3.847 107.022 3.942L108.984 4.062V4.685C108.984 5.529 108.469 5.986 107.447 5.986 106.629 5.986 106.089 5.681 105.911 5.148L105.905 5.129H104.8L104.807 5.167C104.985 6.24 106.026 6.963 107.486 6.963 109.155 6.963 110.088 6.106 110.088 4.685V0H108.984V1.009H108.882C108.45 .279 107.733-.121 106.813-.121ZM105.657 1.936C105.657 1.244 106.248 .838 107.041 .838 108.165 .838 108.984 1.574 108.984 2.552V3.174L107.155 3.06C106.114 2.996 105.657 2.628 105.657 1.949V1.936ZM111 0ZM114.377-.121C112.854-.121 111.806 .616 111.679 1.746H112.809C112.993 1.174 113.539 .8 114.415 .8 115.336 .8 115.99 1.238 115.99 1.86V1.873C115.99 2.336 115.64 2.66 114.796 2.863L113.736 3.117C112.454 3.421 111.876 3.98 111.876 4.964V4.97C111.876 6.106 112.968 6.963 114.422 6.963 115.856 6.963 116.853 6.246 117.005 5.129H115.92C115.774 5.668 115.241 6.043 114.415 6.043 113.603 6.043 113.006 5.624 113.006 5.021V5.008C113.006 4.545 113.349 4.253 114.155 4.056L115.209 3.802C116.497 3.491 117.119 2.933 117.119 1.955V1.942C117.119 .724 115.932-.121 114.377-.121ZM117.727 0ZM121.548-.121C119.593-.121 118.413 1.25 118.413 3.396V3.402C118.413 5.516 119.619 6.963 121.478 6.963 123.338 6.963 124.468 5.58 124.468 3.536V3.104H119.542C119.574 1.688 120.355 .863 121.574 .863 122.5 .863 123.072 1.301 123.256 1.714L123.281 1.771H124.386L124.373 1.72C124.138 .793 123.161-.121 121.548-.121ZM121.472 5.979C120.456 5.979 119.682 5.288 119.561 3.986H123.345C123.23 5.338 122.481 5.979 121.472 5.979ZM128.654 0ZM132.031-.121C130.508-.121 129.46 .616 129.333 1.746H130.463C130.647 1.174 131.193 .8 132.069 .8 132.989 .8 133.643 1.238 133.643 1.86V1.873C133.643 2.336 133.294 2.66 132.45 2.863L131.39 3.117C130.108 3.421 129.53 3.98 129.53 4.964V4.97C129.53 6.106 130.622 6.963 132.075 6.963 133.51 6.963 134.507 6.246 134.659 5.129H133.573C133.427 5.668 132.894 6.043 132.069 6.043 131.257 6.043 130.66 5.624 130.66 5.021V5.008C130.66 4.545 131.003 4.253 131.809 4.056L132.862 3.802C134.151 3.491 134.773 2.933 134.773 1.955V1.942C134.773 .724 133.586-.121 132.031-.121ZM135.381 0ZM139.202-.121C137.247-.121 136.066 1.25 136.066 3.396V3.402C136.066 5.516 137.272 6.963 139.132 6.963 140.992 6.963 142.122 5.58 142.122 3.536V3.104H137.196C137.228 1.688 138.009 .863 139.227 .863 140.154 .863 140.725 1.301 140.909 1.714L140.935 1.771H142.039L142.027 1.72C141.792 .793 140.814-.121 139.202-.121ZM139.126 5.979C138.11 5.979 137.336 5.288 137.215 3.986H140.998C140.884 5.338 140.135 5.979 139.126 5.979ZM142.729 0ZM143.758 0V6.843H144.862V5.814H144.964C145.307 6.538 145.948 6.963 146.957 6.963 148.493 6.963 149.35 6.056 149.35 4.431V0H148.246V4.164C148.246 5.396 147.738 5.986 146.646 5.986 145.554 5.986 144.862 5.25 144.862 4.05V0H143.758ZM150.243 0ZM153.798-.121C152.065-.121 150.929 1.282 150.929 3.415V3.428C150.929 5.573 152.059 6.963 153.798 6.963 154.737 6.963 155.556 6.494 155.931 5.764H156.032V9.56H157.137V0H156.032V1.092H155.931C155.512 .33 154.75-.121 153.798-.121ZM154.052 .857C155.296 .857 156.058 1.834 156.058 3.415V3.428C156.058 5.008 155.296 5.986 154.052 5.986 152.801 5.986 152.059 5.021 152.059 3.428V3.415C152.059 1.822 152.801 .857 154.052 .857ZM161.729 0ZM164.636-.121C163.335-.121 162.351 .667 162.351 1.911V1.923C162.351 3.142 163.252 3.847 164.846 3.942L166.807 4.062V4.685C166.807 5.529 166.293 5.986 165.271 5.986 164.452 5.986 163.912 5.681 163.735 5.148L163.728 5.129H162.624L162.63 5.167C162.808 6.24 163.849 6.963 165.309 6.963 166.978 6.963 167.911 6.106 167.911 4.685V0H166.807V1.009H166.705C166.274 .279 165.556-.121 164.636-.121ZM163.481 1.936C163.481 1.244 164.071 .838 164.865 .838 165.988 .838 166.807 1.574 166.807 2.552V3.174L164.979 3.06C163.938 2.996 163.481 2.628 163.481 1.949V1.936ZM168.824 0ZM169.852 0V6.843H170.957V5.814H171.058C171.401 6.538 172.042 6.963 173.051 6.963 174.587 6.963 175.444 6.056 175.444 4.431V0H174.34V4.164C174.34 5.396 173.832 5.986 172.74 5.986 171.648 5.986 170.957 5.25 170.957 4.05V0H169.852ZM179.916 0ZM183.737-.121C181.782-.121 180.601 1.25 180.601 3.396V3.402C180.601 5.516 181.807 6.963 183.667 6.963 185.527 6.963 186.657 5.58 186.657 3.536V3.104H181.731C181.763 1.688 182.544 .863 183.762 .863 184.689 .863 185.26 1.301 185.445 1.714L185.47 1.771H186.574L186.562 1.72C186.327 .793 185.349-.121 183.737-.121ZM183.661 5.979C182.645 5.979 181.871 5.288 181.75 3.986H185.533C185.419 5.338 184.67 5.979 183.661 5.979ZM187.264 0ZM188.293 0V6.843H189.397V5.802H189.499C189.804 6.538 190.451 6.963 191.346 6.963 192.273 6.963 192.92 6.475 193.238 5.764H193.339C193.707 6.487 194.488 6.963 195.434 6.963 196.83 6.963 197.611 6.164 197.611 4.729V0H196.507V4.475C196.507 5.484 196.043 5.986 195.078 5.986 194.126 5.986 193.498 5.269 193.498 4.399V0H192.393V4.646C192.393 5.459 191.835 5.986 190.972 5.986 190.077 5.986 189.397 5.205 189.397 4.24V0H188.293ZM198.498 0ZM201.405-.121C200.104-.121 199.12 .667 199.12 1.911V1.923C199.12 3.142 200.021 3.847 201.615 3.942L203.576 4.062V4.685C203.576 5.529 203.062 5.986 202.04 5.986 201.221 5.986 200.682 5.681 200.504 5.148L200.498 5.129H199.393L199.399 5.167C199.577 6.24 200.618 6.963 202.078 6.963 203.748 6.963 204.681 6.106 204.681 4.685V0H203.576V1.009H203.475C203.043 .279 202.326-.121 201.405-.121ZM200.25 1.936C200.25 1.244 200.84 .838 201.634 .838 202.757 .838 203.576 1.574 203.576 2.552V3.174L201.748 3.06C200.707 2.996 200.25 2.628 200.25 1.949V1.936ZM205.593 0ZM207.205 8.163C206.786 8.163 206.443 8.506 206.443 8.925 206.443 9.344 206.786 9.687 207.205 9.687 207.624 9.687 207.967 9.344 207.967 8.925 207.967 8.506 207.624 8.163 207.205 8.163ZM206.647 0V6.843H207.751V0H206.647ZM208.727 0ZM209.819 0V9.56H210.923V0H209.819ZM21.49-18ZM24.95-18.051C23.541-18.051 22.95-17.53 22.95-16.223V-12.071H21.871V-11.157H22.95V-9.386H24.093V-11.157H25.591V-12.071H24.093V-15.943C24.093-16.75 24.372-17.073 25.083-17.073 25.28-17.073 25.388-17.067 25.591-17.048V-17.987C25.375-18.025 25.166-18.051 24.95-18.051ZM26.046-18ZM29.886-18.121C27.938-18.121 26.732-16.775 26.732-14.585V-14.572C26.732-12.376 27.938-11.037 29.886-11.037 31.835-11.037 33.041-12.376 33.041-14.572V-14.585C33.041-16.775 31.835-18.121 29.886-18.121ZM29.886-17.143C31.181-17.143 31.911-16.197 31.911-14.585V-14.572C31.911-12.954 31.181-12.014 29.886-12.014 28.592-12.014 27.862-12.954 27.862-14.572V-14.585C27.862-16.197 28.592-17.143 29.886-17.143ZM37.227-18ZM40.604-18.121C39.081-18.121 38.033-17.384 37.906-16.254H39.036C39.22-16.826 39.766-17.2 40.642-17.2 41.563-17.2 42.216-16.762 42.216-16.14V-16.127C42.216-15.664 41.867-15.34 41.023-15.137L39.963-14.883C38.681-14.579 38.103-14.02 38.103-13.036V-13.03C38.103-11.894 39.195-11.037 40.648-11.037 42.083-11.037 43.08-11.754 43.232-12.871H42.147C42.001-12.332 41.467-11.957 40.642-11.957 39.83-11.957 39.233-12.376 39.233-12.979V-12.992C39.233-13.455 39.576-13.747 40.382-13.944L41.436-14.198C42.724-14.509 43.346-15.067 43.346-16.045V-16.058C43.346-17.276 42.159-18.121 40.604-18.121ZM43.954-18ZM47.274-18.121C45.718-18.121 44.919-17.207 44.919-15.588V-11.157H46.023V-15.321C46.023-16.553 46.467-17.143 47.559-17.143 48.765-17.143 49.406-16.407 49.406-15.207V-11.157H50.511V-18H49.406V-16.978H49.305C48.968-17.708 48.277-18.121 47.274-18.121ZM51.468-18ZM52.496-20.285V-11.157H53.6V-12.249H53.702C54.121-11.487 54.883-11.037 55.835-11.037 57.568-11.037 58.704-12.439 58.704-14.572V-14.585C58.704-16.73 57.574-18.121 55.835-18.121 54.895-18.121 54.076-17.651 53.702-16.921H53.6V-20.285H52.496ZM55.581-17.143C56.831-17.143 57.574-16.178 57.574-14.585V-14.572C57.574-12.979 56.831-12.014 55.581-12.014 54.337-12.014 53.575-12.992 53.575-14.572V-14.585C53.575-16.166 54.337-17.143 55.581-17.143ZM59.324-18ZM60.352-20.285V-11.157H61.457V-12.249H61.559C61.977-11.487 62.739-11.037 63.691-11.037 65.424-11.037 66.56-12.439 66.56-14.572V-14.585C66.56-16.73 65.431-18.121 63.691-18.121 62.752-18.121 61.933-17.651 61.559-16.921H61.457V-20.285H60.352ZM63.437-17.143C64.688-17.143 65.431-16.178 65.431-14.585V-14.572C65.431-12.979 64.688-12.014 63.437-12.014 62.193-12.014 61.432-12.992 61.432-14.572V-14.585C61.432-16.166 62.193-17.143 63.437-17.143ZM67.181-18ZM71.021-18.121C69.072-18.121 67.866-16.775 67.866-14.585V-14.572C67.866-12.376 69.072-11.037 71.021-11.037 72.97-11.037 74.176-12.376 74.176-14.572V-14.585C74.176-16.775 72.97-18.121 71.021-18.121ZM71.021-17.143C72.316-17.143 73.046-16.197 73.046-14.585V-14.572C73.046-12.954 72.316-12.014 71.021-12.014 69.726-12.014 68.996-12.954 68.996-14.572V-14.585C68.996-16.197 69.726-17.143 71.021-17.143ZM74.783-18ZM75.812-18V-11.157H76.916V-12.173H77.018C77.278-11.456 77.919-11.037 78.846-11.037 79.055-11.037 79.29-11.062 79.398-11.081V-12.154C79.17-12.116 78.96-12.09 78.719-12.09 77.665-12.09 76.916-12.757 76.916-13.76V-18H75.812ZM79.783-18ZM83.243-18.051C81.834-18.051 81.243-17.53 81.243-16.223V-12.071H80.164V-11.157H81.243V-9.386H82.386V-11.157H83.884V-12.071H82.386V-15.943C82.386-16.75 82.665-17.073 83.376-17.073 83.573-17.073 83.681-17.067 83.884-17.048V-17.987C83.668-18.025 83.459-18.051 83.243-18.051ZM84.428-18ZM90.687-19.485C87.412-19.485 85.336-17.429 85.336-14.191V-14.179C85.336-11.043 87.469-8.891 90.579-8.891 93.581-8.891 95.67-10.808 95.67-13.557V-13.569C95.67-15.632 94.743-16.946 93.283-16.946 92.553-16.946 91.995-16.534 91.893-15.918L91.887-15.88H91.785C91.512-16.527 90.941-16.889 90.198-16.889 88.878-16.889 87.989-15.804 87.989-14.198V-14.185C87.989-12.649 88.897-11.57 90.198-11.57 90.865-11.57 91.436-11.913 91.684-12.465H91.785V-11.69H92.744V-15.417C92.744-15.861 93.004-16.121 93.461-16.121 94.261-16.121 94.775-15.112 94.775-13.557V-13.544C94.775-11.259 93.036-9.691 90.497-9.691 88.015-9.691 86.231-11.583 86.231-14.217V-14.229C86.231-16.934 87.983-18.679 90.7-18.679 91.569-18.679 92.426-18.559 92.826-18.375V-19.174C92.255-19.371 91.487-19.485 90.687-19.485ZM90.344-15.994C91.214-15.994 91.772-15.302 91.772-14.223V-14.21C91.772-13.131 91.22-12.446 90.357-12.446 89.506-12.446 89.005-13.106 89.005-14.21V-14.223C89.005-15.321 89.513-15.994 90.344-15.994ZM96.284-18ZM99.743-18.051C98.334-18.051 97.744-17.53 97.744-16.223V-12.071H96.665V-11.157H97.744V-9.386H98.886V-11.157H100.384V-12.071H98.886V-15.943C98.886-16.75 99.166-17.073 99.877-17.073 100.073-17.073 100.181-17.067 100.384-17.048V-17.987C100.169-18.025 99.959-18.051 99.743-18.051ZM100.84-18ZM104.661-18.121C102.706-18.121 101.525-16.75 101.525-14.604V-14.598C101.525-12.484 102.731-11.037 104.591-11.037 106.451-11.037 107.581-12.42 107.581-14.464V-14.896H102.655C102.687-16.312 103.467-17.137 104.686-17.137 105.613-17.137 106.184-16.699 106.368-16.286L106.394-16.229H107.498L107.486-16.28C107.251-17.207 106.273-18.121 104.661-18.121ZM104.585-12.021C103.569-12.021 102.795-12.712 102.674-14.014H106.457C106.343-12.662 105.594-12.021 104.585-12.021ZM108.188-18ZM111.096-18.121C109.794-18.121 108.81-17.333 108.81-16.089V-16.077C108.81-14.858 109.712-14.153 111.305-14.058L113.266-13.938V-13.315C113.266-12.471 112.752-12.014 111.73-12.014 110.911-12.014 110.372-12.319 110.194-12.852L110.188-12.871H109.083L109.09-12.833C109.267-11.76 110.308-11.037 111.768-11.037 113.438-11.037 114.371-11.894 114.371-13.315V-18H113.266V-16.991H113.165C112.733-17.721 112.016-18.121 111.096-18.121ZM109.94-16.064C109.94-16.756 110.531-17.162 111.324-17.162 112.448-17.162 113.266-16.426 113.266-15.448V-14.826L111.438-14.94C110.397-15.004 109.94-15.372 109.94-16.051V-16.064ZM115.283-18ZM116.311-18V-11.157H117.416V-12.198H117.518C117.822-11.462 118.47-11.037 119.365-11.037 120.291-11.037 120.939-11.525 121.256-12.236H121.358C121.726-11.513 122.507-11.037 123.453-11.037 124.849-11.037 125.63-11.836 125.63-13.271V-18H124.525V-13.525C124.525-12.516 124.062-12.014 123.097-12.014 122.145-12.014 121.517-12.731 121.517-13.601V-18H120.412V-13.354C120.412-12.541 119.853-12.014 118.99-12.014 118.095-12.014 117.416-12.795 117.416-13.76V-18H116.311ZM126.517-18ZM129.976-18.051C128.567-18.051 127.977-17.53 127.977-16.223V-12.071H126.898V-11.157H127.977V-9.386H129.119V-11.157H130.617V-12.071H129.119V-15.943C129.119-16.75 129.398-17.073 130.109-17.073 130.306-17.073 130.414-17.067 130.617-17.048V-17.987C130.401-18.025 130.192-18.051 129.976-18.051ZM131.161-18ZM132.253-18V-8.44H133.358V-12.186H133.459C133.802-11.462 134.443-11.037 135.452-11.037 136.988-11.037 137.845-11.944 137.845-13.569V-18H136.741V-13.836C136.741-12.604 136.233-12.014 135.141-12.014 134.049-12.014 133.358-12.75 133.358-13.95V-18H132.253ZM138.739-18ZM139.767-18V-11.157H140.871V-12.173H140.973C141.233-11.456 141.874-11.037 142.801-11.037 143.011-11.037 143.245-11.062 143.353-11.081V-12.154C143.125-12.116 142.915-12.09 142.674-12.09 141.62-12.09 140.871-12.757 140.871-13.76V-18H139.767ZM143.612-18ZM145.224-9.837C144.805-9.837 144.462-9.494 144.462-9.075 144.462-8.656 144.805-8.313 145.224-8.313 145.643-8.313 145.986-8.656 145.986-9.075 145.986-9.494 145.643-9.837 145.224-9.837ZM144.665-18V-11.157H145.77V-18H144.665ZM146.746-18ZM149.71-18 147.177-11.157H148.345L150.218-16.794H150.319L152.192-11.157H153.36L150.827-18H149.71ZM153.46-18ZM157.281-18.121C155.326-18.121 154.145-16.75 154.145-14.604V-14.598C154.145-12.484 155.351-11.037 157.211-11.037 159.071-11.037 160.201-12.42 160.201-14.464V-14.896H155.275C155.307-16.312 156.088-17.137 157.306-17.137 158.233-17.137 158.804-16.699 158.988-16.286L159.014-16.229H160.118L160.106-16.28C159.871-17.207 158.893-18.121 157.281-18.121ZM157.205-12.021C156.189-12.021 155.415-12.712 155.294-14.014H159.077C158.963-12.662 158.214-12.021 157.205-12.021ZM160.808-18ZM162.738-18.063C162.287-18.063 161.913-17.689 161.913-17.238 161.913-16.781 162.287-16.413 162.738-16.413 163.195-16.413 163.563-16.781 163.563-17.238 163.563-17.689 163.195-18.063 162.738-18.063ZM164.336-18ZM168.164-18.121C166.247-18.121 165.021-16.73 165.021-14.56V-14.547C165.021-12.42 166.24-11.037 168.157-11.037 169.82-11.037 170.817-11.995 171.02-13.214L171.026-13.252H169.928L169.922-13.233C169.75-12.56 169.141-12.014 168.157-12.014 166.926-12.014 166.151-13.004 166.151-14.547V-14.56C166.151-16.134 166.938-17.143 168.157-17.143 169.078-17.143 169.662-16.737 169.915-15.975L169.928-15.937 171.02-15.931 171.007-16C170.728-17.238 169.808-18.121 168.164-18.121ZM171.532-18ZM175.373-18.121C173.424-18.121 172.218-16.775 172.218-14.585V-14.572C172.218-12.376 173.424-11.037 175.373-11.037 177.321-11.037 178.527-12.376 178.527-14.572V-14.585C178.527-16.775 177.321-18.121 175.373-18.121ZM175.373-17.143C176.668-17.143 177.398-16.197 177.398-14.585V-14.572C177.398-12.954 176.668-12.014 175.373-12.014 174.078-12.014 173.348-12.954 173.348-14.572V-14.585C173.348-16.197 174.078-17.143 175.373-17.143ZM179.135-18ZM180.163-18V-11.157H181.268V-12.198H181.369C181.674-11.462 182.322-11.037 183.217-11.037 184.143-11.037 184.791-11.525 185.108-12.236H185.21C185.578-11.513 186.359-11.037 187.304-11.037 188.701-11.037 189.482-11.836 189.482-13.271V-18H188.377V-13.525C188.377-12.516 187.914-12.014 186.949-12.014 185.997-12.014 185.368-12.731 185.368-13.601V-18H184.264V-13.354C184.264-12.541 183.705-12.014 182.842-12.014 181.947-12.014 181.268-12.795 181.268-13.76V-18H180.163Z" fill="#ffffff"/>
<path transform="matrix(1,0,0,-1,52.5,375.25)" d="M0 0H270V-.5H0V0Z" fill="#ebebf5" fill-opacity=".18"/>
<path transform="matrix(1,0,0,-1,143.192,403.75004)" d="M0 0ZM6.475-.299C3.08-.299 .971 2.108 .971 5.977V5.993C.971 9.878 3.071 12.277 6.466 12.277 9.189 12.277 11.256 10.55 11.538 8.102V8.035H9.438L9.43 8.068C9.123 9.488 7.977 10.426 6.466 10.426 4.433 10.426 3.163 8.724 3.163 6.001V5.985C3.163 3.254 4.433 1.552 6.475 1.552 7.994 1.552 9.123 2.399 9.43 3.719L9.438 3.76H11.538V3.702C11.223 1.303 9.239-.299 6.475-.299ZM12.043 0ZM17.223-.183C14.5-.183 12.857 1.594 12.857 4.532V4.549C12.857 7.462 14.525 9.247 17.223 9.247 19.929 9.247 21.589 7.471 21.589 4.549V4.532C21.589 1.594 19.937-.183 17.223-.183ZM17.223 1.494C18.659 1.494 19.472 2.615 19.472 4.524V4.541C19.472 6.45 18.651 7.579 17.223 7.579 15.787 7.579 14.965 6.45 14.965 4.541V4.524C14.965 2.615 15.787 1.494 17.223 1.494ZM21.995 0ZM23.256-3.013V9.073H25.323V7.653H25.464C25.962 8.641 26.95 9.222 28.22 9.222 30.495 9.222 31.947 7.413 31.947 4.541V4.524C31.947 1.635 30.519-.149 28.22-.149 26.975-.149 25.937 .465 25.464 1.444H25.323V-3.013H23.256ZM27.573 1.594C28.984 1.594 29.839 2.706 29.839 4.524V4.541C29.839 6.367 28.984 7.479 27.573 7.479 26.17 7.479 25.298 6.367 25.298 4.549V4.532C25.298 2.714 26.17 1.594 27.573 1.594ZM32.012 0ZM34.245-3.188C33.996-3.188 33.706-3.179 33.457-3.154V-1.569C33.623-1.585 33.855-1.594 34.071-1.594 34.918-1.594 35.424-1.245 35.648-.423L35.756-.008 32.51 9.073H34.768L36.885 1.984H37.043L39.151 9.073H41.326L38.072-.191C37.292-2.465 36.254-3.188 34.245-3.188ZM45.557 0ZM50.703-.183C48.005-.183 46.37 1.627 46.37 4.516V4.524C46.37 7.379 48.022 9.247 50.604 9.247 53.185 9.247 54.779 7.437 54.779 4.698V4.018H48.437C48.462 2.391 49.342 1.444 50.745 1.444 51.865 1.444 52.504 2.009 52.704 2.424L52.729 2.482H54.696L54.671 2.407C54.38 1.237 53.168-.183 50.703-.183ZM50.628 7.628C49.475 7.628 48.611 6.848 48.454 5.404H52.762C52.621 6.89 51.782 7.628 50.628 7.628ZM55.176 0ZM56.438 0V9.073H58.505V7.662H58.646C59.036 8.674 59.949 9.247 61.136 9.247 62.365 9.247 63.261 8.616 63.651 7.612H63.792C64.232 8.6 65.278 9.247 66.54 9.247 68.366 9.247 69.462 8.126 69.462 6.242V0H67.395V5.736C67.395 6.915 66.855 7.512 65.751 7.512 64.672 7.512 63.975 6.707 63.975 5.669V0H61.908V5.885C61.908 6.89 61.285 7.512 60.273 7.512 59.252 7.512 58.505 6.649 58.505 5.52V0H56.438ZM70.241 0ZM73.976-.149C72.249-.149 70.996 .913 70.996 2.565V2.582C70.996 4.2 72.233 5.146 74.441 5.279L76.773 5.42V6.201C76.773 7.105 76.184 7.604 75.072 7.604 74.125 7.604 73.511 7.263 73.304 6.666L73.295 6.632H71.345L71.353 6.707C71.552 8.234 73.013 9.247 75.171 9.247 77.504 9.247 78.815 8.118 78.815 6.201V0H76.773V1.245H76.632C76.134 .365 75.171-.149 73.976-.149ZM73.038 2.665C73.038 1.893 73.694 1.436 74.607 1.436 75.852 1.436 76.773 2.25 76.773 3.329V4.059L74.731 3.926C73.578 3.852 73.038 3.428 73.038 2.681V2.665ZM79.628 0ZM81.952 10.592C81.271 10.592 80.715 11.131 80.715 11.812 80.715 12.484 81.271 13.032 81.952 13.032 82.624 13.032 83.18 12.484 83.18 11.812 83.18 11.131 82.624 10.592 81.952 10.592ZM80.914 0V9.073H82.981V0H80.914ZM83.851 0ZM85.196 0V12.584H87.263V0H85.196Z" fill="#ffffff"/>
<path transform="matrix(1,0,0,-1,52.5,419.75)" d="M0 0H270V-.5H0V0Z" fill="#ebebf5" fill-opacity=".18"/>
<path transform="matrix(1,0,0,-1,165.7545,448.25)" d="M0 0ZM6.35-.282C3.096-.282 1.062 2.125 1.062 5.977V5.993C1.062 9.853 3.088 12.26 6.342 12.26 8.865 12.26 10.833 10.675 11.189 8.375L11.181 8.359H9.679L9.67 8.375C9.272 9.911 7.994 10.882 6.342 10.882 4.042 10.882 2.598 8.99 2.598 5.993V5.977C2.598 2.98 4.042 1.096 6.35 1.096 8.019 1.096 9.289 1.951 9.662 3.329L9.679 3.345H11.189V3.329C10.791 1.137 8.898-.282 6.35-.282ZM11.761 0ZM13.189 0V12.501H14.633V0H13.189ZM15.653 0ZM20.675-.158C18.126-.158 16.549 1.602 16.549 4.466V4.482C16.549 7.354 18.126 9.106 20.675 9.106 23.223 9.106 24.8 7.354 24.8 4.482V4.466C24.8 1.602 23.223-.158 20.675-.158ZM20.675 1.121C22.368 1.121 23.323 2.357 23.323 4.466V4.482C23.323 6.599 22.368 7.828 20.675 7.828 18.981 7.828 18.027 6.599 18.027 4.482V4.466C18.027 2.357 18.981 1.121 20.675 1.121ZM25.289 0ZM29.705-.158C27.713-.158 26.343 .805 26.177 2.283H27.654C27.895 1.536 28.609 1.046 29.755 1.046 30.958 1.046 31.813 1.619 31.813 2.432V2.449C31.813 3.055 31.357 3.478 30.253 3.744L28.866 4.076C27.19 4.474 26.434 5.205 26.434 6.491V6.5C26.434 7.985 27.862 9.106 29.763 9.106 31.639 9.106 32.942 8.168 33.141 6.707H31.722C31.531 7.413 30.834 7.902 29.755 7.902 28.692 7.902 27.912 7.354 27.912 6.566V6.549C27.912 5.943 28.36 5.562 29.414 5.304L30.792 4.972C32.477 4.565 33.291 3.835 33.291 2.557V2.54C33.291 .946 31.738-.158 29.705-.158ZM33.779 0ZM38.776-.158C36.22-.158 34.676 1.635 34.676 4.441V4.449C34.676 7.213 36.253 9.106 38.685 9.106 41.117 9.106 42.595 7.296 42.595 4.624V4.059H36.153C36.195 2.208 37.216 1.129 38.809 1.129 40.021 1.129 40.768 1.702 41.009 2.241L41.042 2.316H42.487L42.47 2.25C42.163 1.038 40.885-.158 38.776-.158ZM38.677 7.819C37.348 7.819 36.336 6.915 36.178 5.213H41.125C40.976 6.981 39.996 7.819 38.677 7.819Z" fill="#ffffff"/>
<path transform="matrix(1,0,0,-1,52.5,464.25)" d="M0 0H270V-.5H0V0Z" fill="#ebebf5" fill-opacity=".18"/>
<use data-text="T" xlink:href="#font_10_35" transform="matrix(13,0,0,-13,81.5316,337.25)"/>
<use data-text="o" xlink:href="#font_10_11" transform="matrix(13,0,0,-13,88.412509,337.25)"/>
<use data-text=" " xlink:href="#font_10_30" transform="matrix(13,0,0,-13,96.0045,337.25)"/>
<use data-text="c" xlink:href="#font_10_32" transform="matrix(13,0,0,-13,99.5795,337.25)"/>
<use data-text="o" xlink:href="#font_10_11" transform="matrix(13,0,0,-13,106.76849,337.25)"/>
<use data-text="n" xlink:href="#font_10_27" transform="matrix(13,0,0,-13,114.36049,337.25)"/>
<use data-text="t" xlink:href="#font_10_26" transform="matrix(13,0,0,-13,121.86799,337.25)"/>
<use data-text="a" xlink:href="#font_10_23" transform="matrix(13,0,0,-13,126.50899,337.25)"/>
<use data-text="c" xlink:href="#font_10_32" transform="matrix(13,0,0,-13,133.59398,337.25)"/>
<use data-text="t" xlink:href="#font_10_26" transform="matrix(13,0,0,-13,140.91037,337.25)"/>
<use data-text=" " xlink:href="#font_10_30" transform="matrix(13,0,0,-13,145.55136,337.25)"/>
<use data-text="u" xlink:href="#font_10_28" transform="matrix(13,0,0,-13,149.12636,337.25)"/>
<use data-text="s" xlink:href="#font_10_10" transform="matrix(13,0,0,-13,156.63385,337.25)"/>
<use data-text=" " xlink:href="#font_10_30" transform="matrix(13,0,0,-13,163.35485,337.25)"/>
<use data-text="p" xlink:href="#font_10_21" transform="matrix(13,0,0,-13,166.92984,337.25)"/>
<use data-text="l" xlink:href="#font_10_13" transform="matrix(13,0,0,-13,174.78183,337.25)"/>
<use data-text="e" xlink:href="#font_10_12" transform="matrix(13,0,0,-13,177.97983,337.25)"/>
<use data-text="a" xlink:href="#font_10_23" transform="matrix(13,0,0,-13,185.32483,337.25)"/>
<use data-text="s" xlink:href="#font_10_10" transform="matrix(13,0,0,-13,192.40982,337.25)"/>
<use data-text="e" xlink:href="#font_10_12" transform="matrix(13,0,0,-13,199.13082,337.25)"/>
<use data-text=" " xlink:href="#font_10_30" transform="matrix(13,0,0,-13,206.47582,337.25)"/>
<use data-text="s" xlink:href="#font_10_10" transform="matrix(13,0,0,-13,210.05081,337.25)"/>
<use data-text="e" xlink:href="#font_10_12" transform="matrix(13,0,0,-13,216.7718,337.25)"/>
<use data-text="n" xlink:href="#font_10_27" transform="matrix(13,0,0,-13,224.1168,337.25)"/>
<use data-text="d" xlink:href="#font_10_25" transform="matrix(13,0,0,-13,231.6243,337.25)"/>
<use data-text=" " xlink:href="#font_10_30" transform="matrix(13,0,0,-13,239.52829,337.25)"/>
<use data-text="a" xlink:href="#font_10_23" transform="matrix(13,0,0,-13,243.10329,337.25)"/>
<use data-text="n" xlink:href="#font_10_27" transform="matrix(13,0,0,-13,250.18828,337.25)"/>
<use data-text=" " xlink:href="#font_10_30" transform="matrix(13,0,0,-13,257.69578,337.25)"/>
<use data-text="e" xlink:href="#font_10_12" transform="matrix(13,0,0,-13,261.27079,337.25)"/>
<use data-text="m" xlink:href="#font_10_24" transform="matrix(13,0,0,-13,268.61579,337.25)"/>
<use data-text="a" xlink:href="#font_10_23" transform="matrix(13,0,0,-13,279.84779,337.25)"/>
<use data-text="i" xlink:href="#font_10_19" transform="matrix(13,0,0,-13,286.93278,337.25)"/>
<use data-text="l" xlink:href="#font_10_13" transform="matrix(13,0,0,-13,290.06578,337.25)"/>
<use data-text=" " xlink:href="#font_10_30" transform="matrix(13,0,0,-13,293.26377,337.25)"/>
<use data-text="t" xlink:href="#font_10_26" transform="matrix(13,0,0,-13,103.0206,355.255)"/>
<use data-text="o" xlink:href="#font_10_11" transform="matrix(13,0,0,-13,107.573207,355.255)"/>
<use data-text="&#x00a0;" xlink:href="#font_10_29" transform="matrix(13,0,0,-13,115.1652,355.255)"/>
<use data-text="s" xlink:href="#font_10_10" transform="matrix(13,0,0,-13,118.7402,355.255)"/>
<use data-text="u" xlink:href="#font_10_28" transform="matrix(13,0,0,-13,125.4612,355.255)"/>
<use data-text="p" xlink:href="#font_10_21" transform="matrix(13,0,0,-13,132.96869,355.255)"/>
<use data-text="p" xlink:href="#font_10_21" transform="matrix(13,0,0,-13,140.82068,355.255)"/>
<use data-text="o" xlink:href="#font_10_11" transform="matrix(13,0,0,-13,148.67267,355.255)"/>
<use data-text="r" xlink:href="#font_10_18" transform="matrix(13,0,0,-13,156.26467,355.255)"/>
<use data-text="t" xlink:href="#font_10_26" transform="matrix(13,0,0,-13,161.25276,355.255)"/>
<use data-text="@" xlink:href="#font_10_17" transform="matrix(13,0,0,-13,165.89376,355.255)"/>
<use data-text="t" xlink:href="#font_10_26" transform="matrix(13,0,0,-13,177.73676,355.255)"/>
<use data-text="e" xlink:href="#font_10_12" transform="matrix(13,0,0,-13,182.28936,355.255)"/>
<use data-text="a" xlink:href="#font_10_23" transform="matrix(13,0,0,-13,189.63436,355.255)"/>
<use data-text="m" xlink:href="#font_10_24" transform="matrix(13,0,0,-13,196.71935,355.255)"/>
<use data-text="t" xlink:href="#font_10_26" transform="matrix(13,0,0,-13,207.95134,355.255)"/>
<use data-text="h" xlink:href="#font_10_16" transform="matrix(13,0,0,-13,212.59233,355.255)"/>
<use data-text="r" xlink:href="#font_10_18" transform="matrix(13,0,0,-13,220.16483,355.255)"/>
<use data-text="i" xlink:href="#font_10_19" transform="matrix(13,0,0,-13,225.02683,355.255)"/>
<use data-text="v" xlink:href="#font_10_15" transform="matrix(13,0,0,-13,228.15982,355.255)"/>
<use data-text="e" xlink:href="#font_10_12" transform="matrix(13,0,0,-13,234.86003,355.255)"/>
<use data-text="." xlink:href="#font_10_34" transform="matrix(13,0,0,-13,242.20503,355.255)"/>
<use data-text="c" xlink:href="#font_10_32" transform="matrix(13,0,0,-13,245.72154,355.255)"/>
<use data-text="o" xlink:href="#font_10_11" transform="matrix(13,0,0,-13,252.91054,355.255)"/>
<use data-text="m" xlink:href="#font_10_24" transform="matrix(13,0,0,-13,260.50254,355.255)"/>
<use data-text="C" xlink:href="#font_10_5" transform="matrix(17,0,0,-17,143.192,403.75)"/>
<use data-text="o" xlink:href="#font_10_9" transform="matrix(17,0,0,-17,155.2195,403.75)"/>
<use data-text="p" xlink:href="#font_10_7" transform="matrix(17,0,0,-17,165.16449,403.75)"/>
<use data-text="y" xlink:href="#font_10_6" transform="matrix(17,0,0,-17,175.16899,403.75)"/>
<use data-text=" " xlink:href="#font_10_4" transform="matrix(17,0,0,-17,184.57849,403.75)"/>
<use data-text="e" xlink:href="#font_10_3" transform="matrix(17,0,0,-17,188.70099,403.75)"/>
<use data-text="m" xlink:href="#font_10_8" transform="matrix(17,0,0,-17,198.30599,403.75)"/>
<use data-text="a" xlink:href="#font_10_2" transform="matrix(17,0,0,-17,213.35779,403.75)"/>
<use data-text="i" xlink:href="#font_10_1" transform="matrix(17,0,0,-17,222.73328,403.75)"/>
<use data-text="l" xlink:href="#font_10_0" transform="matrix(17,0,0,-17,226.94927,403.75)"/>
<use data-text="C" xlink:href="#font_10_14" transform="matrix(17,0,0,-17,165.751,448.256)"/>
<use data-text="l" xlink:href="#font_10_13" transform="matrix(17,0,0,-17,177.498,448.256)"/>
<use data-text="o" xlink:href="#font_10_11" transform="matrix(17,0,0,-17,181.374,448.256)"/>
<use data-text="s" xlink:href="#font_10_10" transform="matrix(17,0,0,-17,190.99599,448.256)"/>
<use data-text="e" xlink:href="#font_10_12" transform="matrix(17,0,0,-17,199.47899,448.256)"/>
</g>
</svg>
